<?xml version="1.0" encoding="UTF-8" standalone="no"?><!DOCTYPE svg PUBLIC "-//W3C//DTD SVG 1.1//EN" "http://www.w3.org/Graphics/SVG/1.1/DTD/svg11.dtd"><svg width="100%" height="100%" viewBox="0 0 2338 2346" version="1.1" xmlns="http://www.w3.org/2000/svg" xmlns:xlink="http://www.w3.org/1999/xlink" xml:space="preserve" xmlns:serif="http://www.serif.com/" style="fill-rule:evenodd;clip-rule:evenodd;stroke-linejoin:round;stroke-miterlimit:2;"><g><g><path d="M2336.31,2150.52c0,105.79 -84.395,191.407 -188.458,191.407l-1959.59,-0c-104.105,-0 -188.374,-85.617 -188.374,-191.407l-0,-1959.17c-0,-105.705 84.269,-191.322 188.374,-191.322l1959.59,-0c104.063,-0 188.458,85.617 188.458,191.322l0,1959.17Zm-652.762,-773.278c-1.684,1.895 0,29.606 0,39.966l0,539.518c0,12.171 -2.442,36.344 0,38.829c1.685,1.642 27.669,-0 37.397,-0c87.134,-0 188.964,6.696 253.651,-10.865c79.848,-21.563 141.965,-83.596 174.898,-152.115c16.93,-34.87 30.575,-79.721 31.964,-132.068c4.633,-161.675 -73.867,-261.611 -188.206,-304.735c-41.818,-15.666 -87.764,-19.878 -144.281,-19.878c-50.915,0 -107.643,-4.169 -164.201,0c-1.432,0.127 -0.506,0.506 -1.222,1.348Zm60.097,61.444c-0,-0.548 -0.337,-2.443 -0,-2.738c0.505,-0.8 -0.211,-1.179 1.263,-1.516c40.05,-2.821 81.111,0 117.581,0c113.16,0 188.038,40.135 228.214,119.056c22.152,43.587 31.586,104.821 25.437,167.065c-6.233,60.138 -26.826,107.39 -54.832,141.417c-27.879,34.155 -67.929,61.823 -125.499,72.183c-37.228,6.528 -92.144,4.001 -144.113,4.001c-9.812,-0 -44.135,3.79 -48.051,-0c-0.506,-0.59 -0,-25.647 -0,-32.049l-0,-467.419Zm-723.766,442.025c-45.567,-150.893 -96.398,-318.337 -144.113,-472.768c-2.779,-8.928 -7.917,-31.164 -9.307,-32.007c-7.37,-4.801 -55.59,3.622 -61.528,0c59.043,183.616 118.845,393.216 180.331,580.832c3.242,10.318 9.981,37.439 12.002,38.829c3.538,2.232 51.252,0.421 52.053,0c1.726,-1.095 5.559,-21.057 7.959,-30.827c39.629,-159.021 76.9,-317.242 117.581,-469.989c34.786,145.461 72.689,291.427 108.19,438.025c1.685,7.622 11.203,59.675 15.919,62.791c2.654,1.642 50.537,1.095 52.095,0c3.074,-2.106 7.496,-28.806 10.697,-38.829c59.759,-193.47 123.477,-392.668 180.12,-580.832c-10.149,4.717 -52.305,-6.359 -61.275,0c-1.264,0.758 -5.433,23.458 -8.044,32.007c-47.546,155.736 -99.304,325.496 -146.85,472.768c-37.06,-152.409 -75.931,-316.105 -114.844,-472.768c-1.559,-6.233 -5.981,-30.701 -8.002,-32.007c-4.253,-2.948 -56.137,-0.968 -57.485,0c-1.39,0.927 -6.444,25.1 -8.002,30.575c-41.692,161.043 -74.162,320.653 -117.497,474.2Zm-411.071,38.766c-108.991,-171.824 -204.168,-334.594 -313.874,-510.334c-5.98,-9.77 -16.887,-31.29 -22.488,-33.27c-7.244,-2.527 -22.321,0 -34.786,0c-14.74,0 -37.06,-2.527 -37.481,4.001c-4.886,100.82 -0,201.598 -0,308.525l-0,269.822c-0,9.012 -1.685,34.786 1.347,37.355c3.833,3.074 18.614,-0 28.174,-0c3.664,-0 27.079,2.064 29.269,-0c1.432,-1.432 0,-22.741 0,-33.438l0,-510.165c104.316,167.065 208.421,340.362 313.705,510.165c6.865,10.823 15.793,31.037 22.699,33.438c7.791,2.485 22.7,-0 36.092,-0c9.77,-0 35.038,2.232 37.312,-0c2.864,-2.948 0,-31.459 0,-38.829l0,-542.255c0,-8.297 1.896,-36.808 0,-38.619c-2.232,-2.232 -19.54,0 -29.353,0c-4.001,0 -28.469,-2.232 -30.616,0c-1.39,1.348 -0,23.373 -0,33.27l-0,510.334Z" style="fill:#fff;fill-rule:nonzero;"/></g></g></svg>