<?xml version="1.0" encoding="UTF-8" standalone="no"?><!DOCTYPE svg PUBLIC "-//W3C//DTD SVG 1.1//EN" "http://www.w3.org/Graphics/SVG/1.1/DTD/svg11.dtd"><svg width="100%" height="100%" viewBox="0 0 2018 660" version="1.1" xmlns="http://www.w3.org/2000/svg" xmlns:xlink="http://www.w3.org/1999/xlink" xml:space="preserve" xmlns:serif="http://www.serif.com/" style="fill-rule:evenodd;clip-rule:evenodd;stroke-linejoin:round;stroke-miterlimit:2;"><rect id="Artboard1" x="0" y="-0" width="2017.97" height="659.134" style="fill:none;"/><g><g><path d="M438.226,558.096l0,-510.333c0,-9.897 -1.39,-31.922 0,-33.27c2.148,-2.232 26.616,-0 30.617,-0c9.812,-0 27.121,-2.232 29.353,-0c1.895,1.811 0,30.322 0,38.618l0,542.256c0,7.37 2.864,35.881 0,38.829c-2.274,2.232 -27.542,-0 -37.313,-0c-13.392,-0 -28.3,2.484 -36.091,-0c-6.907,-2.401 -15.835,-22.615 -22.699,-33.439c-105.285,-169.802 -209.39,-343.1 -313.705,-510.165l-0,510.165c-0,10.697 1.432,32.007 -0,33.439c-2.19,2.063 -25.605,-0 -29.269,-0c-9.56,-0 -24.342,3.074 -28.174,-0c-3.032,-2.569 -1.348,-28.343 -1.348,-37.355l0,-269.823c0,-106.926 -4.885,-207.704 0,-308.524c0.421,-6.528 22.742,-4.001 37.481,-4.001c12.466,-0 27.543,-2.527 34.786,-0c5.601,1.979 16.509,23.499 22.489,33.27c109.706,175.74 204.883,338.509 313.873,510.333" style="fill:#fff;fill-rule:nonzero;"/></g><g><path d="M849.298,519.331c43.335,-153.547 75.804,-313.158 117.497,-474.2c1.558,-5.475 6.612,-29.648 8.001,-30.575c1.348,-0.969 53.232,-2.948 57.486,0c2.021,1.306 6.443,25.774 8.001,32.006c38.913,156.663 77.784,320.359 114.844,472.769c47.547,-147.272 99.304,-317.032 146.851,-472.769c2.611,-8.549 6.78,-31.248 8.043,-32.006c8.97,-6.359 51.126,4.717 61.276,0c-56.643,188.164 -120.361,387.362 -180.121,580.832c-3.2,10.023 -7.622,36.723 -10.696,38.829c-1.559,1.095 -49.442,1.642 -52.095,-0c-4.717,-3.117 -14.234,-55.169 -15.919,-62.792c-35.502,-146.598 -73.404,-292.564 -108.19,-438.024c-40.682,152.746 -77.952,310.967 -117.581,469.988c-2.401,9.771 -6.233,29.733 -7.96,30.828c-0.8,0.421 -48.515,2.232 -52.052,-0c-2.022,-1.39 -8.76,-28.511 -12.003,-38.829c-61.486,-187.617 -121.287,-397.216 -180.33,-580.832c5.938,3.622 54.158,-4.801 61.528,0c1.389,0.842 6.527,23.078 9.307,32.006c47.715,154.431 98.546,321.875 144.113,472.769" style="fill:#fff;fill-rule:nonzero;"/></g><g><path d="M1512.97,15.862c0.716,-0.843 -0.211,-1.222 1.221,-1.348c56.559,-4.169 113.286,-0 164.202,-0c56.516,-0 102.462,4.211 144.281,19.878c114.339,43.124 192.839,143.06 188.206,304.734c-1.39,52.347 -15.035,97.199 -31.964,132.069c-32.933,68.519 -95.051,130.552 -174.898,152.114c-64.687,17.562 -166.518,10.866 -253.651,10.866c-9.728,-0 -35.712,1.642 -37.397,-0c-2.443,-2.485 0,-26.658 0,-38.829l0,-539.518c0,-10.36 -1.684,-38.071 0,-39.966m60.096,61.443l0,467.42c0,6.401 -0.505,31.459 0,32.049c3.917,3.79 38.239,-0 48.052,-0c51.968,-0 106.884,2.526 144.113,-4.001c57.569,-10.36 97.619,-38.029 125.499,-72.183c28.005,-34.028 48.599,-81.279 54.832,-141.418c6.148,-62.244 -3.285,-123.477 -25.437,-167.065c-40.176,-78.921 -115.055,-119.055 -228.214,-119.055c-36.47,-0 -77.531,-2.822 -117.581,-0c-1.474,0.337 -0.758,0.716 -1.264,1.516c-0.337,0.295 0,2.19 0,2.737" style="fill:#fff;fill-rule:nonzero;"/></g></g></svg>